/* XPM */
static char *_b4a50e620f449bc9195ba0fa311cd7be9J7LUlbbzVjyQsV[] = {
/* columns rows colors chars-per-pixel */
"16 16 67 1 ",
"  c None",
". c #145B0A",
"X c #006206",
"o c #00680C",
"O c #006B0F",
"+ c #006C16",
"@ c #007018",
"# c #00751A",
"$ c #007121",
"% c #007721",
"& c #007624",
"* c #007822",
"= c #007B26",
"- c #007C24",
"; c #007529",
": c #0C7329",
"> c #0A762F",
", c #007D31",
"< c #177537",
"1 c #A3643D",
"2 c #A26D51",
"3 c #00822F",
"4 c #038336",
"5 c #07843A",
"6 c #02883C",
"7 c #28813A",
"8 c #0C8942",
"9 c #148240",
"0 c #1A8D40",
"q c #039347",
"w c #049045",
"e c #06964E",
"r c #0C9756",
"t c #129552",
"y c #119950",
"u c #239F53",
"i c #3D9356",
"p c #349A59",
"a c #2C9B64",
"s c #2FA169",
"d c #36AA60",
"f c #38BD73",
"g c #4E9969",
"h c #679F68",
"j c #48AC6C",
"k c #48A574",
"l c #4EAA79",
"z c #4CB271",
"x c #56B879",
"c c #AF866C",
"v c #B28367",
"b c #B98F79",
"n c #B99279",
"m c #BB9478",
"M c #CC896A",
"N c #5EB582",
"B c #6DB085",
"V c #62B48D",
"C c #6DB791",
"Z c #69B890",
"A c #7ABA97",
"S c #61C78C",
"D c #72CA91",
"F c #82A889",
"G c #87C9AB",
"H c #91D5AC",
"J c #AADABB",
/* pixels */
"                ",
"       Gl       ",
"      hX%@Z     ",
"   &64O.:quj    ",
"  i#xze;$yi0N   ",
"   8-=3wr,>5*5V ",
"   CaAF  BfStO7 ",
"          JDd+  ",
"    ks      H   ",
"    g<  c       ",
"      Mm        ",
"      2v        ",
"       nn       ",
"        2       ",
"                ",
"                "
};
