/* XPM */
static char *_c1d045ee9a74d9cddb3bac0b3cbcffbj1lgF1clYcTgCC24[] = {
/* columns rows colors chars-per-pixel */
"32 32 247 2 ",
"   c None",
".  c #690B00",
"X  c #790400",
"o  c #773919",
"O  c #095D08",
"+  c #1D5809",
"@  c #2C4D05",
"#  c #00620A",
"$  c #006508",
"%  c #006509",
"&  c #00650A",
"*  c #006A0E",
"=  c #006A11",
"-  c #006B13",
";  c #046A13",
":  c #006E12",
">  c #006D14",
",  c #006D15",
"<  c #006E16",
"1  c #006F17",
"2  c #006E1C",
"3  c #006F1D",
"4  c #17641C",
"5  c #00731B",
"6  c #00731D",
"7  c #066C25",
"8  c #1A6821",
"9  c #007320",
"0  c #007323",
"q  c #007421",
"w  c #027423",
"e  c #007525",
"r  c #007624",
"t  c #007821",
"y  c #007921",
"u  c #007927",
"i  c #007B26",
"p  c #007C26",
"a  c #007B28",
"s  c #007B2A",
"d  c #007C28",
"f  c #007C2B",
"g  c #007B2E",
"h  c #007D2D",
"j  c #007F2F",
"k  c #007E33",
"l  c #007E36",
"z  c #007F37",
"x  c #0E7B30",
"c  c #157734",
"v  c #197F3D",
"b  c #226520",
"n  c #216526",
"m  c #87370B",
"M  c #853A0E",
"N  c #853810",
"B  c #833C18",
"V  c #A23100",
"C  c #874115",
"Z  c #8D4116",
"A  c #92451A",
"S  c #8D4C24",
"D  c #935029",
"F  c #8F5633",
"G  c #9D5833",
"H  c #985C3A",
"J  c #A6683F",
"K  c #9B7356",
"L  c #A06B50",
"P  c #A97552",
"I  c #B67C5D",
"U  c #00812D",
"Y  c #00832F",
"T  c #008132",
"R  c #048032",
"E  c #008533",
"W  c #008135",
"Q  c #008334",
"!  c #018136",
"~  c #038236",
"^  c #078037",
"/  c #068337",
"(  c #008435",
")  c #008635",
"_  c #008138",
"`  c #00833A",
"'  c #04833A",
"]  c #008538",
"[  c #00843A",
"{  c #04873B",
"}  c #07833C",
"|  c #00853D",
" . c #00873C",
".. c #00863D",
"X. c #00873D",
"o. c #00863F",
"O. c #02883A",
"+. c #02883F",
"@. c #008A3E",
"#. c #17853B",
"$. c #19833E",
"%. c #078641",
"&. c #088742",
"*. c #008840",
"=. c #008940",
"-. c #018940",
";. c #028941",
":. c #008A40",
">. c #018A41",
",. c #038B41",
"<. c #008942",
"1. c #018943",
"2. c #038842",
"3. c #018A43",
"4. c #058A42",
"5. c #028D41",
"6. c #008E41",
"7. c #008C42",
"8. c #008D42",
"9. c #008944",
"0. c #008D45",
"q. c #018E44",
"w. c #018F45",
"e. c #078E44",
"r. c #088D47",
"t. c #008E48",
"y. c #008F4A",
"u. c #098A49",
"i. c #148043",
"p. c #168647",
"a. c #1E8747",
"s. c #108E43",
"d. c #198B47",
"f. c #1D8B4B",
"g. c #009143",
"h. c #049143",
"j. c #0A9045",
"k. c #099247",
"l. c #059048",
"z. c #00934F",
"x. c #0B924E",
"c. c #12934A",
"v. c #17964B",
"b. c #1A944A",
"n. c #18964C",
"m. c #1C954D",
"M. c #199949",
"N. c #1D9052",
"B. c #199754",
"V. c #1D9850",
"C. c #268D57",
"Z. c #298A52",
"A. c #3A8D50",
"S. c #209256",
"D. c #239754",
"F. c #249C56",
"G. c #2A9B57",
"H. c #289E56",
"J. c #279C59",
"K. c #29985F",
"L. c #31A15E",
"P. c #37A65F",
"I. c #349960",
"U. c #349C63",
"Y. c #389E68",
"T. c #2CA160",
"R. c #32A463",
"E. c #39A363",
"W. c #3DA961",
"Q. c #33A76F",
"!. c #3FAA69",
"~. c #3EA071",
"^. c #518E4D",
"/. c #469461",
"(. c #449564",
"). c #409F63",
"_. c #44AA6A",
"`. c #41AC6B",
"'. c #41AD6D",
"]. c #47AC6C",
"[. c #47A271",
"{. c #4FAD70",
"}. c #4EA278",
"|. c #51A573",
" X c #56AD74",
".X c #54A578",
"XX c #4FB172",
"oX c #4EB372",
"OX c #4DB374",
"+X c #4DBA76",
"@X c #4BB679",
"#X c #4CB578",
"$X c #50B070",
"%X c #53B071",
"&X c #52B272",
"*X c #54B071",
"=X c #54B474",
"-X c #56B577",
";X c #58B475",
":X c #5FB77B",
">X c #50B87B",
",X c #66BA7F",
"<X c #A08571",
"1X c #BD8C7A",
"2X c #5FB185",
"3X c #69AC80",
"4X c #6AB48F",
"5X c #73B18E",
"6X c #6DB893",
"7X c #7AB895",
"8X c #77B799",
"9X c #7BBC9E",
"0X c #7FBE9D",
"qX c #5CC385",
"wX c #61CB86",
"eX c #61C489",
"rX c #68CF92",
"tX c #73CD97",
"yX c #73CF98",
"uX c #7ACE99",
"iX c #6DD69A",
"pX c #77D09C",
"aX c #7BD199",
"sX c #7BD19A",
"dX c #7AD19B",
"fX c #7FD59F",
"gX c #76C9A6",
"hX c #7BD0A0",
"jX c #9B9986",
"kX c #AC9483",
"lX c #AC9988",
"zX c #B09585",
"xX c #8EBB9F",
"cX c #8CBE9F",
"vX c #9CBB9E",
"bX c #ABA596",
"nX c #A0B698",
"mX c #84BFA2",
"MX c #86C3A5",
"NX c #8AC3A5",
"BX c #8CC4A8",
"VX c #83CEAA",
"CX c #89C9AB",
"ZX c #94CBA8",
"AX c #83D7A1",
"SX c #97CAB1",
"DX c #B0DBC1",
/* pixels */
"                                                                ",
"                                                                ",
"                                  mX                            ",
"                            N.K.d.6 S.                          ",
"                          |.: T W :.y f 6X                      ",
"            5XNXSX9X7X  ^.; w &.z.1.:.E % [.                    ",
"            #.5 R a 3 # % % O 4 x +.7.4.b.H.{.E.                ",
"          $.p ( s.`.J.x.l.~ 1 @ + ( q.E.,X%XP.M.ZX              ",
"        3X* :.D.].XX;X*Xm.7.g.b 8 g.[ L.%X_.OXW. X              ",
"        MXr f R.,X%X%X-Xm.[ t.g.4.:.+.r.g.$.A.oXG.Y.8X          ",
"          BX0 b.!.F.v.c.+.+.:.:.( | | +.7.c n r.k.y 3 ~.CX      ",
"            0XW [ T W j U w a ' u.:.~ l l } a.' W q.7.u > C.    ",
"            }.= 6 %.[ p./.VXQ.gX  bXxXj.T.>XsX@Xz | 1.1.j I.    ",
"              2X4X                    dXwXsXuXAX@X| *.:.> mX    ",
"                                  <X    hXrXeXyXAXB.' u f.      ",
"                                    zX    vXiXqXdX!.; g         ",
"                                              nXyX+XU.          ",
"              i.> { r.> Z.          kX  lX        DX            ",
"                (.7 j r .X        K o                           ",
"                    jX          S D                             ",
"                      1X    A M                                 ",
"                        L V G                                   ",
"                        I X                                     ",
"                          F C                                   ",
"                            P . B                               ",
"                                N L                             ",
"                                  m                             ",
"                                H Z                             ",
"                                                                ",
"                                                                ",
"                                                                ",
"                                                                "
};
