/* XPM */
static char *_6ce7ea8d4504bacae079d7e44cf5549durFXnQrlkCUypvO[] = {
/* columns rows colors chars-per-pixel */
"64 64 214 2 ",
"   c None",
".  c #4D0F00",
"X  c #441100",
"o  c #670B00",
"O  c #661800",
"+  c #781800",
"@  c #740C00",
"#  c #59250C",
"$  c #503E0E",
"%  c #512213",
"&  c #7C2300",
"*  c #7C2901",
"=  c #772500",
"-  c #7D3206",
";  c #64351E",
":  c #6E3010",
">  c #553D2B",
",  c #793A25",
"<  c #693C29",
"1  c #005C01",
"2  c #005100",
"3  c #175E0E",
"4  c #005E13",
"5  c #005D1A",
"6  c #1A5B16",
"7  c #275918",
"8  c #205607",
"9  c #01630B",
"0  c #006B0D",
"q  c #04650B",
"w  c #046412",
"e  c #016B13",
"r  c #00671C",
"t  c #016D1C",
"y  c #0A6615",
"u  c #18661A",
"i  c #00721D",
"p  c #007518",
"a  c #006C24",
"s  c #036C2A",
"d  c #017424",
"f  c #017925",
"g  c #00752C",
"h  c #007B2C",
"j  c #087121",
"k  c #11722A",
"l  c #016833",
"z  c #007432",
"x  c #007C33",
"c  c #077B36",
"v  c #1B7537",
"b  c #166720",
"n  c #2B7637",
"m  c #327732",
"M  c #2E6E36",
"N  c #4C480F",
"B  c #69432B",
"V  c #72472F",
"C  c #4E6429",
"Z  c #087A42",
"A  c #197D48",
"S  c #376A48",
"D  c #795647",
"F  c #417B47",
"G  c #6F6450",
"H  c #832400",
"J  c #8B2700",
"K  c #932000",
"L  c #8A3606",
"P  c #973500",
"I  c #883A17",
"U  c #A43C00",
"Y  c #873D23",
"T  c #8F4418",
"R  c #B2490B",
"E  c #94542A",
"W  c #875937",
"Q  c #945B37",
"!  c #96603F",
"~  c #CB5B15",
"^  c #DF7020",
"/  c #834D48",
"(  c #825A47",
")  c #84614C",
"_  c #84684F",
"`  c #8A6758",
"'  c #9C6E52",
"]  c #8F7057",
"[  c #9D745E",
"{  c #92734E",
"}  c #A16140",
"|  c #A2705A",
" . c #967C6B",
".. c #997665",
"X. c #8F7B68",
"o. c #AE7B67",
"O. c #00832E",
"+. c #00882E",
"@. c #018334",
"#. c #018935",
"$. c #01843B",
"%. c #09853C",
"&. c #018A3E",
"*. c #0A893E",
"=. c #00923B",
"-. c #038642",
";. c #0A8540",
":. c #018A42",
">. c #0B8C45",
",. c #038E4A",
"<. c #158D49",
"1. c #158746",
"2. c #019144",
"3. c #0C924A",
"4. c #04914A",
"5. c #14924B",
"6. c #1B944D",
"7. c #1F8B55",
"8. c #1D9B53",
"9. c #179350",
"0. c #268749",
"q. c #33854E",
"w. c #21934F",
"e. c #2C8E5B",
"r. c #268D53",
"t. c #338958",
"y. c #239452",
"u. c #239957",
"i. c #279E59",
"p. c #2D9C58",
"a. c #349959",
"s. c #1AA15C",
"d. c #2CA15D",
"f. c #25A057",
"g. c #34A35D",
"h. c #3C8A62",
"j. c #3A8A68",
"k. c #399668",
"l. c #34A664",
"z. c #3CA562",
"x. c #3EAB6A",
"c. c #38A965",
"v. c #518054",
"b. c #438D56",
"n. c #459A69",
"m. c #488F71",
"M. c #489A71",
"N. c #599879",
"B. c #5E966E",
"V. c #759B75",
"C. c #45AC6B",
"Z. c #4BAB6C",
"A. c #44A869",
"S. c #52AC6D",
"D. c #46B16E",
"F. c #51AF71",
"G. c #53A47C",
"H. c #57AD79",
"J. c #4CB373",
"K. c #49BA7A",
"L. c #52B375",
"P. c #5ABA7D",
"I. c #55B67C",
"U. c #44AC7C",
"Y. c #9B8479",
"T. c #A68675",
"R. c #AE8F7C",
"E. c #56BA82",
"W. c #65A484",
"Q. c #64AC87",
"!. c #6CAC8C",
"~. c #63B484",
"^. c #69B78D",
"/. c #7BB88F",
"(. c #6BAD91",
"). c #6DBC92",
"_. c #7EBE9D",
"`. c #78B496",
"'. c #5DC384",
"]. c #5DCA8B",
"[. c #6CC98E",
"{. c #68C58B",
"}. c #71C58F",
"|. c #6CC791",
" X c #6CCA92",
".X c #71C791",
"XX c #72C993",
"oX c #79CE9A",
"OX c #78CA96",
"+X c #6AD095",
"@X c #7CD59D",
"#X c #74D399",
"$X c #7BD8A1",
"%X c #AA8B81",
"&X c #A99384",
"*X c #B49883",
"=X c #82BC9C",
"-X c #86B999",
";X c #8AA687",
":X c #B5A091",
">X c #8BBFA0",
",X c #97BFAD",
"<X c #84D39E",
"1X c #84C2A3",
"2X c #8FC0AA",
"3X c #84DBA3",
"4X c #98CEAF",
"5X c #A6D8BB",
"6X c #A6CEBB",
"7X c #8AE5AD",
"8X c #A8D8C3",
"9X c #B3D4C1",
"0X c #AAEDCD",
"qX c #C8F2E1",
/* pixels */
"                                                                                                                                ",
"                                                                                                                                ",
"                                                                                                                                ",
"                                                                                                                                ",
"                                                                                                                                ",
"                                                                  Q.g /.                                                        ",
"                                                        h._.G.Z (.z.f a e.-X                                                    ",
"                                                      k.0 i &.#.d x :.&.d r M.                                                  ",
"                                                    ,X<.&.:.&.:.&.-.-.&.&.=.t g                                                 ",
"                                                    -Xi :.:.:.:.:.:.:.&.:.:.2.@.x h.                                            ",
"                        N.>X                      V.b.f O.*.:.:.:.:.-.$.:.%.:.&.#.x 1.                                          ",
"                        -X4 k.qXe.t.).7.k.t.n m y 1 2 w t j v ;.,.:.:.:.&.&.:.:.:.$.q M.                                        ",
"                        4X0 d r.6.d d @.O.d i 9 1 p e y 0 w 6 k ,.>.:.*.&.&.:.$.x >.8.w.F./.P.t.                                ",
"                      W.7.O.2.x $.&.<.&.&.:.,.-.@.%.t q e w u y u k #.&.&.:.@.$.6.C.L.J.z.g.g.w.1X                              ",
"                    W.t @.4.:.&.$.5.D.l.-.$.$.:.4.,.@.e w e u 7 8 e f &.&.3.l.x.J.J.Z.C.Z.A.C.g.^.                              ",
"                    a #.&.-.&.#.x y.L.J.A.p.u.>.@.:.>.c j 0 3 N 3 i %.%.&.$.p.L.Z.C.A.C.A.Z.C.C.A.                              ",
"                  t.&.*.&.&.@.<.i.x.C.Z.Z.J.L.z.<.#.&.,.&.#.u N 6 d *.:.:.-.1.Z.F.Z.S.Z.Z.C.C.x.p.-X                            ",
"                  -.@.-.&.$.p.L.J.J.A.A.Z.Z.Z.L.x.*.&.:.-.2.%.7 u O.;.:.:.@.8.K.J.J.A.C.L.C.C.Z.g.P.                            ",
"                  a O.&.:.$.8.J.Z.Z.Z.Z.C.Z.Z.Z.x.:.&.:.:.:.4.%.%.&.&.$.&.&.3.9.5.6.*.0.n.J.J.S.S.@.1X                          ",
"                  G.c ;.&.:.x d.L.Z.Z.Z.Z.J.L.D.6.&.&.:.:.:.:.2.:.:.:.-.&.:.$.@.@.@.@.v M w.c.L.F.#.r.e.s G.                    ",
"                    9Xg O.-.6.x.L.J.Z.J.p.d.l.d.>.$.&.&.:.-.:.:.:.:.:.-.-.-.:.:.&.:.2.n C k ,.i.i.>.x h #.g W.                  ",
"                      k.&.$.6.z.x.d.5.3.*.#.$.@.*.:.&.:.-.:.:.:.:.&.-.:.:.:.-.:.:.:.4.v C 1.-.&.&.$.:.&.2.$.;.x.A M.            ",
"                        -Xz x *.-.&.&.&.&.:.&.:.:.-.:.&.-.-.:.:.@.&.:.-.-.:.:.-.:.:.:.-.m c $.&.:.:.:.=.:.:.&.f h :.z m.        ",
"                          6Xc $.-.:.:.:.:.:.-.:.&.&.$.&.:.:.:.c Z z x ,.z @.:.,.:.:.-.$.k A ,.:.$.-.&.:.:.-.&.&.:.$.d >X        ",
"                        Q.E.-.-.:.:.$.&.:.:.:.x @.d @.$.a =.i M.    q.v.  $.@.x x z 9.E.C.XXK.g c ,.:.:.-.:.-.:.-.2.#.A         ",
"                        l w @.&.&.:.@.f d h t r.;XH.`.  `.5 1.      R.D   1Xd c.K.C.I.3X@X3X XD.,.@.:.:.:.:.-.:.-.&.>.W.        ",
"                          -Xa d r l 8X6XW.8X-X    :X                ) Y.    P.OX3X@XoX.X.X}..X7Xx.x ,.-.-.&.:.$.:.@.r.          ",
"                              2X`.                /                 _ &X    OX+X}.[.[..X.X X[.XXoXE.3.$.:.-.:.-.:.O.c           ",
"                                                            ..) D Y...`       '.'.[.[.XX X|. X|.oX+X>.c :.-.:.:.#.s 4X          ",
"                                                                    %X: ;     4X|.^.]. XXXXX|. X|.$Xl.x :.:.:.&.e G.            ",
"                                                                        D %         3X{.|.XX|.|.|.@XE.$.-.:.&.:.1.              ",
"                                                                           .`         S +X{.{.+X.XOX#Xs.@.:.f g                 ",
"                                                                            ,       `   0X$X3XH.XXOX$X8.d :.y.t.                ",
"                                                                          %X#        .       .;X@X{.#XE.h z 9X                  ",
"                            N.OX  k.j.    N.j.U.t.,X                      # Y.    X  .  ` /       I.L.5X                        ",
"                            l w g @.f d g @.h f 5 (.                    T.;     < T.                1X                          ",
"                            /.f i #.&.&.=.&.:.=.f j.                    B   &X>                                                 ",
"                              (.!.0.v #.x &.$.O.z W.                  B W T <                                                   ",
"                                    G V.B.S b.S                     Q o + ..                                                    ",
"                                         .                      o.- @ }                                                         ",
"                                                            Q O O T                                                             ",
"                                            V           ( J + !                                                                 ",
"                                            O V       E R H |                                                                   ",
"                                              ..V I P ~ J _                                                                     ",
"                                                R.K ^ R V                                                                       ",
"                                                  * ~ &                                                                         ",
"                                                  { H L                                                                         ",
"                                                    W H : R.                                                                    ",
"                                                      Q + H L , ..                                                              ",
"                                                        [ L & J = W                                                             ",
"                                                            %XW L H ..                                                          ",
"                                                                ( J -                                                           ",
"                                                                  I + *X                                                        ",
"                                                                  T.@ '                                                         ",
"                                                                  ..K E                                                         ",
"                                                                *XP P :                                                         ",
"                                                                . T Q `                                                         ",
"                                                                                                                                ",
"                                                                                                                                ",
"                                                                                                                                ",
"                                                                                                                                ",
"                                                                                                                                ",
"                                                                                                                                ",
"                                                                                                                                "
};
